<?xml version="1.0" encoding="UTF-8" standalone="no"?>
<!DOCTYPE svg PUBLIC "-//W3C//DTD SVG 1.1//EN" "http://www.w3.org/Graphics/SVG/1.1/DTD/svg11.dtd">
<svg width="100%" height="100%" viewBox="0 0 1064 1097" version="1.1" xmlns="http://www.w3.org/2000/svg" xmlns:xlink="http://www.w3.org/1999/xlink" xml:space="preserve" xmlns:serif="http://www.serif.com/" style="fill-rule:evenodd;clip-rule:evenodd;stroke-linejoin:round;stroke-miterlimit:2;">
    <g transform="matrix(1,0,0,1,0,-137)">
        <g id="ArtBoard1" transform="matrix(0.642414,0,0,0.765672,1666.43,31.5319)">
            <rect x="-2594.01" y="137.746" width="1655.16" height="1432.64" style="fill:none;"/>
            <g transform="matrix(2.20948,0,0,1.85379,-2932.87,-1517.13)">
                <g transform="matrix(0.266793,0,0,0.266793,97.9834,817.981)">
                    <path d="M975.556,1071.53C963.926,1078.31 947.451,1082.19 934.852,1082.19C888.332,1082.19 888.332,1028.88 888.332,995.931L888.332,861.219C888.332,826.329 888.332,785.625 933.883,785.625C948.42,785.625 963.926,790.471 975.556,798.224L975.556,1071.53ZM981.371,1240.16L1231.41,1240.16L1231.41,1103.51C1201.37,1082.19 1204.28,1055.05 1204.28,1036.63L1204.28,409.593L950.358,409.593L950.358,546.244C981.371,566.596 975.556,596.64 975.556,628.622L975.556,661.573C934.852,630.56 884.456,616.992 840.844,616.992C725.515,616.992 659.612,673.203 659.612,806.946L659.612,1036.63C659.612,1169.41 693.533,1252.76 830.183,1252.76C884.456,1252.76 937.759,1238.22 981.371,1205.27L981.371,1240.16Z" style="fill:rgb(146,53,234);fill-rule:nonzero;"/>
                </g>
                <g transform="matrix(0.266793,0,0,0.266793,94.9834,817.981)">
                    <path d="M1824.53,848.62C1824.53,771.087 1819.69,697.432 1746.03,652.851C1692.73,621.838 1599.69,616.992 1537.66,616.992C1468.86,616.992 1394.23,622.807 1338.99,666.419C1281.81,711 1280.84,782.717 1280.84,848.62L1280.84,1007.56C1280.84,1088 1280.84,1162.62 1355.46,1212.05C1408.77,1247.91 1497.93,1252.76 1560.92,1252.76C1630.7,1252.76 1712.11,1246.94 1767.35,1199.45C1822.6,1151.96 1824.53,1075.4 1824.53,1007.56L1824.53,848.62ZM1509.56,850.558C1509.56,816.638 1503.75,759.458 1553.17,759.458C1602.6,759.458 1595.81,817.607 1595.81,850.558L1595.81,1026.94C1595.81,1059.89 1598.72,1110.29 1552.2,1110.29C1506.65,1110.29 1509.56,1059.89 1509.56,1026.94L1509.56,850.558Z" style="fill:rgb(146,53,234);fill-rule:nonzero;"/>
                </g>
                <g transform="matrix(0.266793,0,0,0.266793,89.9834,817.981)">
                    <path d="M2130.79,629.591L1883.65,629.591L1883.65,766.242C1912.73,787.563 1911.76,808.884 1911.76,841.836L1911.76,1026.94C1911.76,1057.96 1913.7,1086.06 1883.65,1103.51L1883.65,1240.16L2168.58,1240.16L2168.58,1103.51C2137.57,1087.03 2140.48,1053.11 2140.48,1023.07L2140.48,794.347C2178.28,776.902 2203.47,794.347 2218.98,817.607C2228.67,839.897 2225.76,868.003 2225.76,871.879L2225.76,1050.2C2225.76,1113.2 2224.79,1178.13 2238.36,1240.16L2481.62,1240.16L2481.62,1103.51C2451.58,1087.03 2454.48,1053.11 2454.48,1023.07L2454.48,794.347C2454.48,742.013 2449.64,697.432 2407.96,657.697C2384.7,634.437 2343.03,618.931 2295.54,616.992C2247.09,615.054 2192.81,625.715 2130.79,667.388L2130.79,629.591Z" style="fill:rgb(146,53,234);fill-rule:nonzero;"/>
                </g>
                <g transform="matrix(0.266793,0,0,0.266793,89.9834,817.981)">
                    <path d="M2783.03,445.452L2554.31,510.385L2554.31,629.591L2526.2,629.591L2526.2,769.149L2554.31,769.149L2554.31,1054.08C2554.31,1107.38 2551.4,1164.56 2593.07,1206.24C2631.84,1244.03 2693.86,1252.76 2744.26,1248.88L2858.62,1240.16L2858.62,1101.57C2782.06,1092.85 2783.03,1068.62 2783.03,1002.72L2783.03,769.149L2858.62,769.149L2858.62,629.591L2783.03,629.591L2783.03,445.452Z" style="fill:rgb(146,53,234);fill-rule:nonzero;"/>
                </g>
                <g transform="matrix(0.266793,0,0,0.266793,23.0543,812.981)">
                    <path d="M982.34,1765.1L1196.52,1765.1L1196.52,1598.4C1118.99,1539.29 1019.17,1522.81 923.222,1522.81C716.792,1522.81 669.304,1601.31 669.304,1731.18L669.304,1934.7C669.304,2008.36 670.273,2158.58 929.037,2158.58C1017.23,2158.58 1131.59,2140.16 1196.52,2075.23L1196.52,1886.24L982.34,1886.24L982.34,1918.23C982.34,1949.24 989.124,2016.11 940.667,2016.11C897.055,2016.11 898.024,1967.65 898.024,1936.64L898.024,1741.84C898.024,1710.83 897.055,1665.28 940.667,1665.28C985.248,1665.28 982.34,1716.64 982.34,1745.72L982.34,1765.1Z" style="fill:rgb(146,53,234);fill-rule:nonzero;"/>
                </g>
                <g transform="matrix(0.266793,0,0,0.266793,23.0543,812.981)">
                    <path d="M1512.47,1315.41L1255.64,1315.41L1255.64,1452.06C1286.65,1470.48 1283.75,1501.49 1283.75,1532.5L1283.75,1932.76C1283.75,1963.78 1285.68,1990.91 1255.64,2009.33L1255.64,2145.98L1540.57,2145.98L1540.57,2009.33C1509.56,1992.85 1512.47,1958.93 1512.47,1928.89L1512.47,1315.41Z" style="fill:rgb(146,53,234);fill-rule:nonzero;"/>
                </g>
                <g transform="matrix(0.266793,0,0,0.266793,23.0543,812.981)">
                    <path d="M2242.24,1765.1L2456.42,1765.1L2456.42,1598.4C2378.89,1539.29 2279.07,1522.81 2183.12,1522.81C1976.69,1522.81 1929.2,1601.31 1929.2,1731.18L1929.2,1934.7C1929.2,2008.36 1930.17,2158.58 2188.94,2158.58C2277.13,2158.58 2391.49,2140.16 2456.42,2075.23L2456.42,1886.24L2242.24,1886.24L2242.24,1918.23C2242.24,1949.24 2249.02,2016.11 2200.57,2016.11C2156.95,2016.11 2157.92,1967.65 2157.92,1936.64L2157.92,1741.84C2157.92,1710.83 2156.95,1665.28 2200.57,1665.28C2245.15,1665.28 2242.24,1716.64 2242.24,1745.72L2242.24,1765.1Z" style="fill:rgb(146,53,234);fill-rule:nonzero;"/>
                </g>
                <g transform="matrix(0.266793,0,0,0.266793,23.0543,812.981)">
                    <path d="M2773.34,1315.41L2516.51,1315.41L2516.51,1452.06C2547.52,1474.35 2544.62,1499.55 2544.62,1532.5L2544.62,1932.76C2544.62,1965.71 2545.58,1987.04 2516.51,2009.33L2516.51,2145.98L2801.44,2145.98L2801.44,2009.33C2770.43,1987.04 2773.34,1961.84 2773.34,1928.89L2773.34,1880.43L2775.27,1880.43L2907.08,2145.98L3113.51,2145.98L3113.51,2009.33C3076.68,1991.88 3065.05,1957.96 3049.54,1925.98L2985.58,1794.17L3056.33,1705.01C3072.8,1684.66 3094.12,1675.94 3101.88,1672.06L3101.88,1535.41L2846.02,1535.41L2846.02,1559.64C2846.02,1612.94 2849.9,1634.26 2814.04,1675.94L2773.34,1723.43L2773.34,1315.41Z" style="fill:rgb(146,53,234);fill-rule:nonzero;"/>
                </g>
                <g transform="matrix(0.266793,0,0,0.266793,98.9834,812.981)">
                    <path d="M917.407,2221.23L659.612,2221.23L659.612,2357.88C691.594,2374.36 689.656,2407.31 688.687,2438.32L688.687,2838.58C688.687,2869.6 690.625,2897.7 660.582,2915.15L660.582,3051.8L945.512,3051.8L945.512,2915.15C914.5,2898.67 917.407,2864.75 917.407,2834.71L917.407,2605.99C955.204,2588.54 980.402,2605.99 995.908,2629.25C1005.6,2651.54 1002.69,2679.64 1002.69,2683.52L1002.69,2861.84C1002.69,2924.84 1001.72,2989.77 1015.29,3051.8L1258.55,3051.8L1258.55,2915.15C1228.51,2898.67 1231.41,2864.75 1231.41,2834.71L1231.41,2605.99C1231.41,2553.65 1226.57,2509.07 1184.89,2469.34C1161.63,2446.08 1119.96,2430.57 1072.47,2428.63C1024.01,2426.69 969.741,2437.35 917.407,2468.37L917.407,2221.23Z" style="fill:rgb(146,53,234);fill-rule:nonzero;"/>
                </g>
                <g transform="matrix(0.266793,0,0,0.266793,92.9834,812.981)">
                    <path d="M1320.58,2828.89C1320.58,2902.55 1323.48,2970.39 1387.45,3017.88C1437.84,3055.67 1531.85,3071.18 1624.89,3064.39C1718.9,3057.61 1812.9,3029.51 1863.3,2985.89L1863.3,2832.77L1634.58,2832.77L1634.58,2855.06C1634.58,2886.07 1631.67,2921.93 1591.94,2921.93C1552.2,2921.93 1548.33,2882.19 1549.3,2852.15L1549.3,2795.94L1863.3,2795.94L1863.3,2651.54C1867.18,2502.29 1811.93,2427.66 1587.09,2428.63C1372.91,2429.6 1316.7,2496.47 1320.58,2663.17L1320.58,2828.89ZM1638.46,2656.38L1549.3,2656.38L1549.3,2633.12C1549.3,2608.89 1553.17,2571.1 1593.88,2571.1C1634.58,2571.1 1638.46,2608.89 1638.46,2633.12L1638.46,2656.38Z" style="fill:rgb(146,53,234);fill-rule:nonzero;"/>
                </g>
                <g transform="matrix(0.266793,0,0,0.266793,89.9834,812.981)">
                    <path d="M2161.8,2441.23L1915.63,2441.23L1915.63,2579.82C1946.65,2600.17 1943.74,2628.28 1943.74,2660.26L1943.74,2832.77C1943.74,2864.75 1946.65,2892.86 1915.63,2913.21L1915.63,3051.8L2205.41,3051.8L2205.41,2915.15C2186.03,2905.45 2180.21,2900.61 2176.34,2880.26C2172.46,2860.87 2172.46,2833.74 2172.46,2814.35L2172.46,2755.24C2172.46,2683.52 2189.91,2638.94 2269.38,2638.94L2287.79,2638.94L2287.79,2430.57C2279.07,2428.63 2269.38,2427.66 2260.65,2427.66C2211.23,2427.66 2186.03,2448.01 2161.8,2489.69L2161.8,2441.23Z" style="fill:rgb(146,53,234);fill-rule:nonzero;"/>
                </g>
                <g transform="matrix(0.266793,0,0,0.266793,82.9834,812.981)">
                    <path d="M2347.88,2828.89C2347.88,2902.55 2350.78,2970.39 2414.75,3017.88C2465.14,3055.67 2559.15,3071.18 2652.19,3064.39C2746.2,3057.61 2840.21,3029.51 2890.6,2985.89L2890.6,2832.77L2661.88,2832.77L2661.88,2855.06C2661.88,2886.07 2658.97,2921.93 2619.24,2921.93C2579.5,2921.93 2575.63,2882.19 2576.6,2852.15L2576.6,2795.94L2890.6,2795.94L2890.6,2651.54C2894.48,2502.29 2839.24,2427.66 2614.39,2428.63C2400.21,2429.6 2344,2496.47 2347.88,2663.17L2347.88,2828.89ZM2665.76,2656.38L2576.6,2656.38L2576.6,2633.12C2576.6,2608.89 2580.47,2571.1 2621.18,2571.1C2661.88,2571.1 2665.76,2608.89 2665.76,2633.12L2665.76,2656.38Z" style="fill:rgb(146,53,234);fill-rule:nonzero;"/>
                </g>
                <g transform="matrix(-0.242274,-0.319947,0.312552,-0.236675,311.59,1480.43)">
                    <path d="M351.76,736.954L351.76,755.556L282.825,755.556L282.825,790.15L299.191,790.15L299.191,771.924L368.126,771.924L368.126,736.954L351.76,736.954Z" style="fill:rgb(217,38,102);fill-rule:nonzero;"/>
                    <rect x="299.191" y="790.15" width="16.366" height="32.886" style="fill:rgb(217,38,102);fill-rule:nonzero;"/>
                    <rect x="315.557" y="823.036" width="16.365" height="34.739" style="fill:rgb(217,38,102);fill-rule:nonzero;"/>
                    <rect x="264.452" y="823.036" width="16.366" height="34.739" style="fill:rgb(217,38,102);fill-rule:nonzero;"/>
                    <rect x="248.086" y="788.298" width="16.366" height="34.738" style="fill:rgb(217,38,102);fill-rule:nonzero;"/>
                    <rect x="231.721" y="772.483" width="16.365" height="15.815" style="fill:rgb(217,38,102);fill-rule:nonzero;"/>
                    <rect x="215.354" y="788.298" width="16.367" height="15.816" style="fill:rgb(217,38,102);fill-rule:nonzero;"/>
                    <rect x="198.989" y="804.114" width="16.365" height="18.922" style="fill:rgb(217,38,102);fill-rule:nonzero;"/>
                    <path d="M171.587,579.07L189.569,579.07L189.569,561.243L171.587,561.243L171.587,550.239L155.221,550.239L155.221,838.858L198.989,838.852L198.989,823.036L171.587,823.036L171.587,579.07Z" style="fill:rgb(217,38,102);fill-rule:nonzero;"/>
                    <rect x="280.818" y="857.775" width="34.739" height="16.365" style="fill:rgb(217,38,102);fill-rule:nonzero;"/>
                    <rect x="333.738" y="721.679" width="18.022" height="15.275" style="fill:rgb(217,38,102);fill-rule:nonzero;"/>
                    <rect x="315.717" y="703.853" width="18.021" height="17.826" style="fill:rgb(217,38,102);fill-rule:nonzero;"/>
                    <rect x="297.696" y="686.027" width="18.021" height="17.826" style="fill:rgb(217,38,102);fill-rule:nonzero;"/>
                    <rect x="279.676" y="668.202" width="18.02" height="17.825" style="fill:rgb(217,38,102);fill-rule:nonzero;"/>
                    <rect x="261.653" y="650.376" width="18.023" height="17.826" style="fill:rgb(217,38,102);fill-rule:nonzero;"/>
                    <rect x="243.633" y="632.549" width="18.02" height="17.827" style="fill:rgb(217,38,102);fill-rule:nonzero;"/>
                    <rect x="225.612" y="614.723" width="18.021" height="17.826" style="fill:rgb(217,38,102);fill-rule:nonzero;"/>
                    <rect x="207.591" y="596.896" width="18.021" height="17.827" style="fill:rgb(217,38,102);fill-rule:nonzero;"/>
                    <rect x="189.569" y="579.07" width="18.022" height="17.826" style="fill:rgb(217,38,102);fill-rule:nonzero;"/>
                    <g transform="matrix(1.00012,0,0,1.00334,-0.0418632,-2.86611)">
                        <path d="M165.345,556.83L189.727,580.077L344.897,733.297L351.761,737.356L356.249,744.455L363.582,751.662L357.791,763.552L291.653,763.552L299.131,790.375L315.562,823.152L323.744,857.775L271.254,857.775L271.019,823.152L256.269,823.036L254.872,788.529L231.736,788.529L215.371,804.293L199.008,823.152L169.861,830.403L165.345,556.83Z" style="fill:rgb(217,38,102);"/>
                    </g>
                </g>
            </g>
        </g>
    </g>
</svg>
