<?xml version="1.0" encoding="UTF-8" standalone="no"?>
<!DOCTYPE svg PUBLIC "-//W3C//DTD SVG 1.1//EN" "http://www.w3.org/Graphics/SVG/1.1/DTD/svg11.dtd">
<svg width="100%" height="100%" viewBox="0 0 157 226" version="1.1" xmlns="http://www.w3.org/2000/svg" xmlns:xlink="http://www.w3.org/1999/xlink" xml:space="preserve" xmlns:serif="http://www.serif.com/" style="fill-rule:evenodd;clip-rule:evenodd;stroke-linejoin:round;stroke-miterlimit:2;">
    <g transform="matrix(1,0,0,1,-100.966,-58.3228)">
        <g transform="matrix(-0.446655,-0.589849,0.57622,-0.43633,-145.468,623.553)">
            <g transform="matrix(1.00012,0,0,1.00334,-0.0418632,-2.86611)">
                <path d="M165.345,556.83L189.727,580.077L344.897,733.297L351.761,737.356L356.249,744.455L363.582,751.662L357.791,763.552L291.653,763.552L299.131,790.375L315.562,823.152L323.744,857.775L271.254,857.775L271.019,823.152L256.269,823.036L254.872,788.529L231.736,788.529L215.371,804.293L199.008,823.152L169.861,830.403L165.345,556.83Z" style="fill:rgb(217,38,102);"/>
            </g>
        </g>
    </g>
</svg>
